# xmcd CD database file
#
# Track frame offsets:
#	150
#	19121
#	46766
#	76891
#	94931
#
# Disc length: 1581 seconds
#
# Revision: 0
# Processed by: cddbd v1.5.2PL0 Copyright (c) Steve Scherf et al.
# Submitted via: CDex 1.51
#
DISCID=2e062b05
DTITLE=Kenny Drew - Cool Jazz Collection Vol.30
DYEAR=2009
DGENRE=Jazz
TTITLE0=Bewitched, Bothered and Bewildered
TTITLE1=Come Rain or Come Shine
TTITLE2=I'll Remember April
TTITLE3=I Can Make You LoveMe(If You'll Let Me)
TTITLE4=When You Wish upon a Star
EXTD=YEAR: 2009
EXTT0=
EXTT1=
EXTT2=
EXTT3=
EXTT4=
PLAYORDER=
